PathFileType	4	(X/Y/Z)	Walk2.trc
DataRate	CameraRate	NumFrames	NumMarkers	Units	OrigDataRate	OrigDataStartFrame	OrigNumFrames
200.000000	200.000000	6	59	mm	200.000000	152	381
Frame#	Times		LFHD		RFHD		LBHD		RBHD		C7		T10		CLAV		STRN		RBack		LASI		RASI		LPSI		RPSI		RACR1		RUA1		RElbow		RElbowM		RFA1		RWRR		RWRU		RCAR		LACR1		LUA1		LElbow		LElbowM		LFA1		LWRR		LWRU		LCAR		RTH1		RTH3		RTH2		RTH4		RLFC		RTB1		RTB3		RTB2		RTB4		RLMAL		RMMAL		RCAL		RMT1		RMT5		RToe		LTH1		LTH3		LTH2		LTH4		LLFC		LTB1		LTB3		LTB2		LTB4		LLMAL		LCAL		LMT5		LToe		LMMAL		LMT1
			X1	Y1	Z1	X2	Y2	Z2	X3	Y3	Z3	X4	Y4	Z4	X5	Y5	Z5	X6	Y6	Z6	X7	Y7	Z7	X8	Y8	Z8	X9	Y9	Z9	X10	Y10	Z10	X11	Y11	Z11	X12	Y12	Z12	X13	Y13	Z13	X14	Y14	Z14	X15	Y15	Z15	X16	Y16	Z16	X17	Y17	Z17	X18	Y18	Z18	X19	Y19	Z19	X20	Y20	Z20	X21	Y21	Z21	X22	Y22	Z22	X23	Y23	Z23	X24	Y24	Z24	X25	Y25	Z25	X26	Y26	Z26	X27	Y27	Z27	X28	Y28	Z28	X29	Y29	Z29	X30	Y30	Z30	X31	Y31	Z31	X32	Y32	Z32	X33	Y33	Z33	X34	Y34	Z34	X35	Y35	Z35	X36	Y36	Z36	X37	Y37	Z37	X38	Y38	Z38	X39	Y39	Z39	X40	Y40	Z40	X41	Y41	Z41	X42	Y42	Z42	X43	Y43	Z43	X44	Y44	Z44	X45	Y45	Z45	X46	Y46	Z46	X47	Y47	Z47	X48	Y48	Z48	X49	Y49	Z49	X50	Y50	Z50	X51	Y51	Z51	X52	Y52	Z52	X53	Y53	Z53	X54	Y54	Z54	X55	Y55	Z55	X56	Y56	Z56	X57	Y57	Z57	X58	Y58	Z58	X59	Y59	Z59

152	0.76	-315.54	1436.5	-36.605	-324.46	1426.2	59.504	-438.29	1352.9	-66.239	-450.08	1347.1	66.212	-476.91	1265.1	-0.45911	-559.13	1066.6	17.464	-332.51	1182.9	-1.6809	-281.25	1076.7	-3.0777	-520.85	1146.1	121.67	-353.91	815.14	-143.93	-341.13	817.7	164.65	-613.09	843.86	-28.892	-601.29	838.35	78.015	-402.77	1214.5	178.94	-388.68	1072.7	260.67	-398.64	946.98	295.52	-450.78	913.42	225.08	-334.67	832.72	304.07	-311.37	733.92	271.55	-350.33	732.5	332.83	-299.55	679.8	326.17	-413.49	1207.1	-187.47	-398.05	1038.5	-252.14	-438.13	922.32	-261.92	-460.9	903.07	-193.02	-387	828.37	-297.04	-353.64	717.81	-280.4	-402.77	718.36	-319.99	-365.52	667.37	-324.8	-413.54	629.74	228.2	-410.61	459.74	195.18	-357.97	550.38	193.87	-413.85	544.62	214.21	-448.53	379.9	180.51	-473.54	270.47	135.14	-611.48	172.3	101.66	-574.37	252.69	163.48	-546.34	223.1	117.72	-697.75	167.91	124.45	-669.18	164.11	46.791	-740.41	199.18	71.281	-654.4	57.591	58.382	-689.1	68.463	139.81	-625.63	30.766	99.317	-401.19	649.49	-196.94	-375.61	484.99	-144.42	-338.18	585.42	-148.76	-388.42	566.91	-174.75	-339.7	399.52	-104.62	-315.06	303.34	-36.364	-325.54	133.14	-23.219	-341.79	213.25	-88.922	-324.1	216.16	-29.142	-374.69	56.934	-54.574	-417.46	41.622	-10.663	-292.54	19.839	-76.689	-200.5	30.923	-15.34	-355.01	73.815	23.125	-250.75	34.195	9.0704
153	0.765	-310.11	1437.3	-37.008	-319.14	1427	59.096	-432.95	1353.8	-66.752	-444.87	1348	65.691	-471.79	1265.9	-1.1206	-553.96	1067.4	16.697	-327.29	1183.8	-2.0175	-276.14	1077.6	-3.5145	-515.92	1147	120.84	-348.97	816	-144.36	-335.9	818.55	164.12	-607.95	844.97	-29.279	-596.08	839.09	77.643	-398.14	1215.5	178.42	-384.27	1073.8	260.31	-394.85	947.94	295	-446.87	914.65	224.41	-331.32	833.45	303.68	-308.39	734.55	271.02	-347.38	733.26	332.35	-296.91	680.15	325.47	-407.85	1208	-187.91	-391.21	1039.5	-252.52	-431.37	923.25	-262.76	-454.62	903.92	-193.98	-379.84	829.42	-297.53	-346.36	718.91	-280.72	-395.19	719.38	-320.65	-357.85	668.35	-325.14	-406.98	630.67	227.88	-400.93	460.63	195.16	-349.89	552.18	193.78	-405.76	545.56	214.09	-437.84	380.75	180.53	-462.93	271.67	135.04	-601.38	174.15	101.9	-563.79	254.43	163.62	-536.05	224.64	117.79	-687.77	170.44	124.74	-659.16	165.99	47.086	-730.41	201.37	71.243	-644.22	59.447	60.227	-679.39	71.411	141.22	-616.03	31.705	101.71	-397.45	649.72	-197.42	-373.03	484.99	-144.84	-334.7	585.1	-149.57	-385.29	567.01	-175.29	-337.58	399.27	-105.02	-313.39	303.01	-36.771	-325.05	132.9	-23.428	-340.87	213.02	-89.189	-323.05	215.9	-29.444	-374.71	56.952	-54.628	-417.5	41.639	-10.716	-292.57	19.842	-76.731	-200.48	30.917	-15.358	-354.9	73.856	23.061	-250.81	34.259	9.0649
154	0.77	-304.7	1438.1	-37.398	-313.83	1427.8	58.701	-427.62	1354.7	-67.244	-439.67	1349	65.191	-466.65	1266.6	-1.7539	-548.8	1068.2	15.938	-322.09	1184.7	-2.3215	-271.03	1078.5	-3.879	-511.02	1147.7	120.02	-344.1	816.75	-144.77	-330.7	819.38	163.68	-602.82	846.04	-29.693	-590.94	839.85	77.236	-393.54	1216.5	177.93	-379.91	1074.8	260	-391.06	948.84	294.54	-442.98	915.8	223.81	-327.96	834.13	303.32	-305.39	735.12	270.53	-344.4	733.98	331.91	-294.23	680.47	324.81	-402.23	1208.9	-188.33	-384.4	1040.4	-252.87	-424.62	924.13	-263.6	-448.35	904.69	-194.96	-372.66	830.41	-298.02	-339.02	719.97	-281.07	-387.57	720.35	-321.33	-350.11	669.34	-325.52	-400.46	631.64	227.54	-391.39	461.63	195.08	-341.9	554.03	193.62	-397.75	546.58	213.94	-427.23	381.73	180.47	-452.24	272.93	134.8	-591.02	175.81	102.07	-553.06	256.01	163.69	-525.57	226.11	117.77	-677.48	172.59	125.02	-648.87	167.52	47.358	-720.23	203.01	71.196	-633.44	61.106	62.045	-669.03	74.076	142.67	-605.63	32.676	104.03	-393.75	649.94	-197.88	-370.44	485.02	-145.25	-331.25	584.81	-150.32	-382.16	567.11	-175.8	-335.47	399.02	-105.41	-311.73	302.68	-37.153	-324.55	132.67	-23.622	-339.94	212.79	-89.443	-322.01	215.63	-29.728	-374.73	56.972	-54.689	-417.53	41.661	-10.774	-292.6	19.835	-76.777	-200.44	30.901	-15.398	-354.8	73.901	22.993	-250.86	34.327	9.0477
155	0.775	-299.31	1438.8	-37.777	-308.55	1428.6	58.318	-422.29	1355.6	-67.715	-434.47	1349.8	64.711	-461.5	1267.4	-2.3579	-543.66	1069	15.189	-316.89	1185.5	-2.5948	-265.92	1079.3	-4.1703	-506.12	1148.5	119.21	-339.3	817.41	-145.16	-325.53	820.18	163.32	-597.71	847.09	-30.134	-585.86	840.61	76.796	-388.95	1217.3	177.49	-375.62	1075.7	259.72	-387.25	949.68	294.13	-439.08	916.88	223.3	-324.59	834.74	303.01	-302.37	735.65	270.06	-341.4	734.64	331.5	-291.51	680.77	324.18	-396.62	1209.7	-188.74	-377.63	1041.3	-253.21	-417.88	924.94	-264.44	-442.09	905.38	-195.96	-365.48	831.37	-298.53	-331.63	720.99	-281.44	-379.91	721.28	-322.02	-342.3	670.32	-325.95	-393.97	632.65	227.21	-381.98	462.71	194.95	-334.02	555.9	193.42	-389.84	547.68	213.76	-416.7	382.84	180.34	-441.47	274.23	134.45	-580.39	177.26	102.2	-542.2	257.44	163.69	-514.92	227.48	117.67	-666.88	174.34	125.28	-638.3	168.71	47.61	-709.88	204.09	71.153	-622.07	62.55	63.802	-658.05	76.415	144.1	-594.47	33.654	106.25	-390.06	650.16	-198.31	-367.82	485.06	-145.64	-327.81	584.53	-151.01	-379.01	567.22	-176.27	-333.35	398.77	-105.78	-310.08	302.35	-37.507	-324.04	132.45	-23.8	-338.99	212.56	-89.68	-320.98	215.37	-29.991	-374.74	56.995	-54.755	-417.55	41.689	-10.834	-292.62	19.822	-76.826	-200.39	30.872	-15.459	-354.69	73.949	22.922	-250.9	34.399	9.0191
156	0.78	-293.96	1439.5	-38.145	-303.28	1429.3	57.946	-416.98	1356.4	-68.167	-429.27	1350.7	64.25	-456.33	1268.1	-2.9319	-538.54	1069.7	14.448	-311.69	1186.3	-2.8395	-260.8	1080.1	-4.3877	-501.23	1149.1	118.41	-334.56	817.98	-145.53	-320.4	820.96	163.03	-592.6	848.1	-30.601	-580.84	841.4	76.326	-384.38	1218.1	177.09	-371.38	1076.6	259.48	-383.43	950.46	293.76	-435.19	917.9	222.87	-321.2	835.3	302.73	-299.33	736.13	269.63	-338.37	735.26	331.12	-288.75	681.04	323.6	-391.04	1210.4	-189.13	-370.91	1042.1	-253.52	-411.15	925.69	-265.28	-435.83	906	-196.96	-358.28	832.28	-299.04	-324.2	721.99	-281.84	-372.22	722.16	-322.72	-334.42	671.31	-326.41	-387.51	633.68	226.88	-372.71	463.87	194.78	-326.24	557.8	193.16	-382.02	548.84	213.55	-406.23	384.05	180.13	-430.62	275.58	134.01	-569.51	178.48	102.3	-531.21	258.7	163.64	-504.09	228.76	117.51	-656	175.67	125.55	-627.46	169.54	47.843	-699.35	204.63	71.124	-610.13	63.767	65.469	-646.46	78.395	145.49	-582.58	34.615	108.34	-386.35	650.37	-198.71	-365.16	485.11	-146.02	-324.35	584.27	-151.64	-375.82	567.34	-176.71	-331.22	398.53	-106.13	-308.44	302.02	-37.835	-323.53	132.23	-23.962	-338.03	212.35	-89.9	-319.94	215.11	-30.232	-374.73	57.02	-54.824	-417.57	41.724	-10.896	-292.65	19.802	-76.878	-200.34	30.832	-15.541	-354.58	73.998	22.849	-250.94	34.473	8.9797
157	0.785	-288.62	1440.2	-38.502	-298.03	1430	57.585	-411.67	1357.2	-68.6	-424.07	1351.5	63.808	-451.13	1268.8	-3.4761	-533.43	1070.4	13.718	-306.5	1187	-3.0576	-255.67	1080.8	-4.53	-496.34	1149.8	117.64	-329.86	818.48	-145.89	-315.3	821.72	162.82	-587.51	849.07	-31.092	-575.87	842.2	75.827	-379.81	1218.9	176.73	-367.19	1077.4	259.26	-379.58	951.18	293.43	-431.3	918.84	222.51	-317.79	835.81	302.48	-296.28	736.56	269.24	-335.32	735.82	330.78	-285.96	681.3	323.06	-385.46	1211	-189.52	-364.25	1042.8	-253.82	-404.43	926.39	-266.12	-429.58	906.54	-197.97	-351.07	833.14	-299.55	-316.74	722.95	-282.25	-364.5	723.01	-323.42	-326.49	672.31	-326.92	-381.1	634.72	226.56	-363.58	465.09	194.56	-318.55	559.72	192.87	-374.28	550.04	213.31	-395.83	385.35	179.86	-419.7	276.95	133.51	-558.38	179.47	102.37	-520.1	259.8	163.54	-493.09	229.93	117.31	-644.82	176.58	125.8	-616.36	170.02	48.061	-688.64	204.62	71.117	-597.67	64.751	67.018	-634.3	79.994	146.82	-569.99	35.538	110.25	-382.62	650.58	-199.08	-362.47	485.18	-146.38	-320.88	584.02	-152.22	-372.59	567.46	-177.11	-329.06	398.29	-106.47	-306.78	301.69	-38.136	-323	132.01	-24.108	-337.05	212.15	-90.101	-318.9	214.84	-30.453	-374.72	57.049	-54.894	-417.58	41.766	-10.958	-292.67	19.778	-76.933	-200.27	30.78	-15.641	-354.47	74.047	22.775	-250.96	34.551	8.9299
